<svg width="186" height="49" viewBox="0 0 186 49" fill="none" xmlns="http://www.w3.org/2000/svg">
<path d="M17.4998 9.91669C14.6155 9.91669 11.796 10.772 9.39778 12.3744C6.99956 13.9769 5.13038 16.2545 4.0266 18.9192C2.92282 21.584 2.63402 24.5162 3.19673 27.3451C3.75943 30.174 5.14835 32.7725 7.18787 34.812C9.22739 36.8515 11.8259 38.2404 14.6548 38.8031C17.4837 39.3658 20.4159 39.077 23.0806 37.9733C25.7454 36.8695 28.023 35.0003 29.6254 32.6021C31.2279 30.2039 32.0832 27.3843 32.0832 24.5C32.0832 22.5849 31.706 20.6886 30.9731 18.9192C30.2402 17.1499 29.166 15.5422 27.8118 14.188C26.4576 12.8339 24.85 11.7597 23.0806 11.0268C21.3113 10.2939 19.415 9.91669 17.4998 9.91669ZM17.4998 36.1667C15.1924 36.1667 12.9368 35.4824 11.0182 34.2005C9.09962 32.9185 7.60427 31.0965 6.72125 28.9647C5.83823 26.8329 5.60719 24.4871 6.05735 22.224C6.50751 19.9609 7.61865 17.8821 9.25027 16.2504C10.8819 14.6188 12.9607 13.5077 15.2238 13.0575C17.4869 12.6074 19.8327 12.8384 21.9645 13.7214C24.0963 14.6044 25.9184 16.0998 27.2003 18.0184C28.4823 19.9369 29.1665 22.1926 29.1665 24.5C29.1665 27.5942 27.9374 30.5617 25.7494 32.7496C23.5615 34.9375 20.594 36.1667 17.4998 36.1667Z" fill="white"/>
<path d="M21.0925 17.8105C20.8393 17.662 20.5473 17.5933 20.2545 17.6135C19.9617 17.6336 19.6817 17.7417 19.4513 17.9235L14.2861 22.0661C14.1344 22.1883 14.0087 22.3397 13.9164 22.5113C13.8242 22.6829 13.7673 22.8712 13.749 23.0652L13.0946 29.7495C13.0783 30.0096 13.132 30.2693 13.2501 30.5016C13.3682 30.7339 13.5463 30.9303 13.7661 31.0704L13.8359 31.0494C13.9969 31.1766 14.1828 31.2684 14.3817 31.3188C14.5805 31.3692 14.7878 31.377 14.9899 31.3419C15.1721 31.2895 15.3424 31.2021 15.4912 31.0845L20.6564 26.9419C20.8081 26.8197 20.9338 26.6683 21.0261 26.4967C21.1183 26.3251 21.1752 26.1367 21.1935 25.9428L21.8479 19.2585C21.8808 18.9693 21.8265 18.6769 21.6919 18.4188C21.5573 18.1608 21.3485 17.9489 21.0925 17.8105V17.8105ZM16.3316 26.6895L16.5922 23.9613L18.6667 22.3017L18.4061 25.0299L16.3316 26.6895Z" fill="#FBB911"/>
<path d="M52.2129 38H45.2695V17.9785H38.9941V12.3008H58.4707V17.9785H52.2129V38ZM69.0879 28.6484V38H62.1445V12.3008H70.5645C77.5488 12.3008 81.041 14.832 81.041 19.8945C81.041 22.8711 79.5879 25.1738 76.6816 26.8027L84.1699 38H76.2949L70.8457 28.6484H69.0879ZM69.0879 23.4277H70.3887C72.8145 23.4277 74.0273 22.3555 74.0273 20.2109C74.0273 18.4414 72.8379 17.5566 70.459 17.5566H69.0879V23.4277ZM102.275 38L101.01 33.1836H92.6602L91.3594 38H83.7305L92.1152 12.1953H101.379L109.869 38H102.275ZM99.5684 27.4883L98.4609 23.2695C98.2031 22.332 97.8867 21.1191 97.5117 19.6309C97.1484 18.1426 96.9082 17.0762 96.791 16.4316C96.6855 17.0293 96.4746 18.0137 96.1582 19.3848C95.8535 20.7559 95.168 23.457 94.1016 27.4883H99.5684ZM127.096 12.3008H134.865L126.445 38H118.271L109.887 12.3008H117.691L121.189 25.3262C121.916 28.2207 122.314 30.2363 122.385 31.373C122.467 30.5527 122.631 29.5273 122.877 28.2969C123.123 27.0664 123.34 26.0996 123.527 25.3965L127.096 12.3008ZM152.918 38H137.66V12.3008H152.918V17.873H144.604V21.916H152.303V27.4883H144.604V32.3398H152.918V38ZM157.418 38V12.3008H164.361V32.3926H174.258V38H157.418Z" fill="white"/>
<path d="M177.105 35.082C177.105 34.0039 177.422 33.1719 178.055 32.5859C178.699 32 179.631 31.707 180.85 31.707C182.01 31.707 182.9 32 183.521 32.5859C184.143 33.1719 184.453 34.0039 184.453 35.082C184.453 36.1367 184.131 36.9629 183.486 37.5605C182.854 38.1465 181.975 38.4395 180.85 38.4395C179.689 38.4395 178.775 38.1465 178.107 37.5605C177.439 36.9746 177.105 36.1484 177.105 35.082Z" fill="#FBB911"/>
</svg>
